<svg xmlns="http://www.w3.org/2000/svg" viewBox="0 0 841.89 595.28"><defs><style>.cls-1{fill:#eeeeef;}.cls-2{font-size:13px;font-family:Volte-Semibold, Volte Semibold;font-weight:600;}.cls-3{fill:#00b900;}.cls-4{fill:#fff;}</style></defs><title>LINE_SOCIAL_Basic_RGB</title><g id="BG"><rect id="BG-2" data-name="BG" class="cls-1" width="841.89" height="595.28"/><text class="cls-2" transform="translate(35.25 43.59)">LINE SOCIAL ICON<tspan x="0" y="22">Basic type</tspan></text></g><g id="LINE_LOGO" data-name="LINE LOGO"><g id="FULL_COLOR_ICON" data-name="FULL COLOR ICON"><rect class="cls-3" x="93.36" y="237.64" width="120" height="120" rx="26"/><g id="TYPE_A" data-name="TYPE A"><path class="cls-4" d="M196.86,292.36c0-19.55-19.6-35.45-43.69-35.45s-43.69,15.9-43.69,35.45c0,17.53,15.54,32.21,36.53,35,1.43.31,3.36.94,3.85,2.16a9.08,9.08,0,0,1,.15,3.95l-.63,3.74c-.19,1.1-.88,4.32,3.79,2.35s25.16-14.81,34.32-25.36h0c6.33-6.95,9.37-14,9.37-21.82"/><path class="cls-3" d="M144.29,282.92h-3.07a.85.85,0,0,0-.85.85v19a.85.85,0,0,0,.85.85h3.07a.85.85,0,0,0,.85-.85v-19a.85.85,0,0,0-.85-.85"/><path class="cls-3" d="M165.38,282.92h-3.06a.85.85,0,0,0-.85.85v11.31l-8.73-11.79-.06-.08h0l0-.05h0l0,0,0,0,0,0,0,0-.05,0h0l0,0h0l0,0H149a.85.85,0,0,0-.85.85v19a.85.85,0,0,0,.85.85H152a.85.85,0,0,0,.86-.85V291.5l8.73,11.79a.73.73,0,0,0,.22.21h0l.05,0h0l0,0,0,0h0l.06,0h0a.78.78,0,0,0,.22,0h3.06a.85.85,0,0,0,.85-.85v-19a.85.85,0,0,0-.85-.85"/><path class="cls-3" d="M136.9,298.89h-8.33V283.77a.85.85,0,0,0-.85-.85h-3.06a.85.85,0,0,0-.85.85v19h0a.83.83,0,0,0,.24.59h0v0a.87.87,0,0,0,.59.23H136.9a.85.85,0,0,0,.85-.85v-3.06a.85.85,0,0,0-.85-.85"/><path class="cls-3" d="M182.31,287.68a.85.85,0,0,0,.85-.85v-3.06a.85.85,0,0,0-.85-.85H170.06a.85.85,0,0,0-.59.24h0v0a.83.83,0,0,0-.24.59h0v19h0a.83.83,0,0,0,.24.59h0a.81.81,0,0,0,.58.24h12.25a.85.85,0,0,0,.85-.85v-3.06a.85.85,0,0,0-.85-.85H174v-3.22h8.33a.85.85,0,0,0,.85-.85v-3.07a.85.85,0,0,0-.85-.85H174v-3.22Z"/></g></g><g id="FULL_COLOR_ICON-2" data-name="FULL COLOR ICON"><rect x="450.8" y="237.64" width="120" height="120" rx="26"/><g id="TYPE_A-2" data-name="TYPE A"><path class="cls-4" d="M554.29,292.36c0-19.55-19.6-35.45-43.69-35.45s-43.69,15.9-43.69,35.45c0,17.53,15.54,32.21,36.54,35,1.42.31,3.36.94,3.85,2.16a8.93,8.93,0,0,1,.14,3.95l-.62,3.74c-.19,1.1-.88,4.32,3.78,2.35s25.16-14.81,34.33-25.36h0c6.33-6.95,9.36-14,9.36-21.82"/><path d="M501.72,282.92h-3.06a.85.85,0,0,0-.85.85v19a.85.85,0,0,0,.85.85h3.06a.85.85,0,0,0,.85-.85v-19a.85.85,0,0,0-.85-.85"/><path d="M522.82,282.92h-3.07a.85.85,0,0,0-.85.85v11.31l-8.72-11.79-.07-.08h0l-.06-.05h0l-.05,0,0,0,0,0,0,0,0,0h0l-.05,0h0l-.05,0h-3.3a.86.86,0,0,0-.85.85v19a.86.86,0,0,0,.85.85h3.07a.85.85,0,0,0,.85-.85V291.5l8.74,11.79a.7.7,0,0,0,.21.21h0l.05,0h0l0,0a.05.05,0,0,0,0,0h0l.06,0h0a.71.71,0,0,0,.21,0h3.07a.85.85,0,0,0,.85-.85v-19a.85.85,0,0,0-.85-.85"/><path d="M494.34,298.89H486V283.77a.85.85,0,0,0-.85-.85h-3.07a.85.85,0,0,0-.85.85v19h0a.83.83,0,0,0,.24.59h0v0a.89.89,0,0,0,.59.23h12.25a.85.85,0,0,0,.85-.85v-3.06a.85.85,0,0,0-.85-.85"/><path d="M539.74,287.68a.85.85,0,0,0,.85-.85v-3.06a.85.85,0,0,0-.85-.85H527.5a.83.83,0,0,0-.59.24h0l0,0a.87.87,0,0,0-.23.59h0v19h0a.83.83,0,0,0,.24.59h0a.83.83,0,0,0,.59.24h12.24a.85.85,0,0,0,.85-.85v-3.06a.85.85,0,0,0-.85-.85h-8.33v-3.22h8.33a.85.85,0,0,0,.85-.85v-3.07a.85.85,0,0,0-.85-.85h-8.33v-3.22Z"/></g></g><rect class="cls-4" x="272.08" y="237.64" width="120" height="120" rx="26"/><g id="FULL_COLOR_ICON-3" data-name="FULL COLOR ICON"><g id="TYPE_A-3" data-name="TYPE A"><path class="cls-3" d="M375.57,292.36c0-19.55-19.6-35.45-43.69-35.45s-43.69,15.9-43.69,35.45c0,17.53,15.55,32.21,36.54,35,1.42.31,3.36.94,3.85,2.16a8.93,8.93,0,0,1,.14,3.95l-.62,3.74c-.19,1.1-.88,4.32,3.78,2.35s25.16-14.81,34.33-25.36h0c6.33-6.95,9.36-14,9.36-21.82"/><path class="cls-4" d="M323,282.92h-3.07a.85.85,0,0,0-.85.85v19a.85.85,0,0,0,.85.85H323a.85.85,0,0,0,.85-.85v-19a.85.85,0,0,0-.85-.85"/><path class="cls-4" d="M344.1,282.92H341a.86.86,0,0,0-.86.85v11.31l-8.72-11.79-.07-.08h0l-.05-.05h0l0,0,0,0,0,0,0,0,0,0h0l-.05,0h0l-.05,0h-3.3a.85.85,0,0,0-.85.85v19a.85.85,0,0,0,.85.85h3.06a.85.85,0,0,0,.85-.85V291.5l8.74,11.79a.7.7,0,0,0,.21.21h0l.06,0h0l0,0,0,0h0l.06,0h0a.78.78,0,0,0,.22,0h3.06a.85.85,0,0,0,.85-.85v-19a.85.85,0,0,0-.85-.85"/><path class="cls-4" d="M315.62,298.89h-8.33V283.77a.85.85,0,0,0-.85-.85h-3.06a.85.85,0,0,0-.85.85v19h0a.87.87,0,0,0,.23.59h0l0,0a.86.86,0,0,0,.58.23h12.25a.85.85,0,0,0,.85-.85v-3.06a.85.85,0,0,0-.85-.85"/><path class="cls-4" d="M361,287.68a.85.85,0,0,0,.85-.85v-3.06a.85.85,0,0,0-.85-.85H348.78a.83.83,0,0,0-.59.24h0v0a.83.83,0,0,0-.24.59h0v19h0a.83.83,0,0,0,.24.59h0a.83.83,0,0,0,.59.24H361a.85.85,0,0,0,.85-.85v-3.06a.85.85,0,0,0-.85-.85H352.7v-3.22H361a.85.85,0,0,0,.85-.85v-3.07a.85.85,0,0,0-.85-.85H352.7v-3.22Z"/></g></g><rect class="cls-4" x="629.51" y="237.64" width="120" height="120" rx="26"/><g id="FULL_COLOR_ICON-4" data-name="FULL COLOR ICON"><g id="TYPE_A-4" data-name="TYPE A"><path d="M733,292.36c0-19.55-19.6-35.45-43.69-35.45s-43.69,15.9-43.69,35.45c0,17.53,15.54,32.21,36.54,35,1.42.31,3.36.94,3.85,2.16a9.08,9.08,0,0,1,.14,3.95l-.63,3.74c-.19,1.1-.87,4.32,3.79,2.35s25.16-14.81,34.33-25.36h0c6.34-6.95,9.37-14,9.37-21.82"/><path class="cls-4" d="M680.44,282.92h-3.06a.86.86,0,0,0-.86.85v19a.86.86,0,0,0,.86.85h3.06a.85.85,0,0,0,.85-.85v-19a.85.85,0,0,0-.85-.85"/><path class="cls-4" d="M701.53,282.92h-3.06a.85.85,0,0,0-.85.85v11.31l-8.73-11.79-.06-.08h0l-.05-.05h0l0,0,0,0-.05,0,0,0,0,0h0l0,0h0l-.05,0h-3.3a.85.85,0,0,0-.85.85v19a.85.85,0,0,0,.85.85h3.07a.85.85,0,0,0,.85-.85V291.5l8.73,11.79a.73.73,0,0,0,.22.21h0l0,0h0l0,0,0,0h0l.06,0h0a.78.78,0,0,0,.22,0h3.06a.86.86,0,0,0,.86-.85v-19a.86.86,0,0,0-.86-.85"/><path class="cls-4" d="M673.05,298.89h-8.32V283.77a.85.85,0,0,0-.85-.85h-3.07a.85.85,0,0,0-.85.85v19h0a.83.83,0,0,0,.24.59h0v0a.87.87,0,0,0,.59.23h12.24a.85.85,0,0,0,.85-.85v-3.06a.85.85,0,0,0-.85-.85"/><path class="cls-4" d="M718.46,287.68a.85.85,0,0,0,.85-.85v-3.06a.85.85,0,0,0-.85-.85H706.21a.85.85,0,0,0-.59.24h0v0a.88.88,0,0,0-.24.59h0v19h0a.88.88,0,0,0,.24.59h0a.83.83,0,0,0,.58.24h12.25a.85.85,0,0,0,.85-.85v-3.06a.85.85,0,0,0-.85-.85h-8.33v-3.22h8.33a.85.85,0,0,0,.85-.85v-3.07a.85.85,0,0,0-.85-.85h-8.33v-3.22Z"/></g></g></g></svg>